<svg version="1.1" xmlns="http://www.w3.org/2000/svg" viewBox="0 0 2386.5 3900.742187499999" width="4773" height="7801.484374999998">
  <!-- svg-source:excalidraw -->
  
  <defs>
    <style class="style-fonts">
      @font-face {
        font-family: "Virgil";
        src: url("https://excalidraw.com/Virgil.woff2");
      }
      @font-face {
        font-family: "Cascadia";
        src: url("https://excalidraw.com/Cascadia.woff2");
      }
    </style>
  </defs>
  <rect x="0" y="0" width="2386.5" height="3900.742187499999" fill="#ffffff"></rect><g stroke-linecap="round" transform="translate(439.078125 803.21875) rotate(0 215.046875 216.48046874999994)"><path d="M1.72 2.04 C151.89 2.44, 306.63 3.15, 431.67 -2.02 M0.93 0.07 C170.79 -0.6, 338.78 -0.75, 430.71 0.73 M428.39 -0.74 C426.96 171.66, 427.3 342.3, 428.28 431.8 M430.43 -0.34 C430.51 150.26, 430.36 301.36, 429.41 432.13 M430.61 432.52 C308.03 435.77, 182.32 434.58, -0.24 432.77 M429.76 432.53 C336.7 438.03, 242.41 438.04, -0.52 433.68 M1.59 433.63 C4.19 268.99, 1.17 101.51, 0.15 1.19 M0.13 433.72 C-1.6 328.08, -1.01 222.1, 0.13 -0.23" stroke="#000000" stroke-width="4" fill="none"></path></g><g transform="translate(605.4350280761719 998.09921875) rotate(0 48.689971923828125 21.600000000000023)"><text x="48.689971923828125" y="0" font-family="Virgil, Segoe UI Emoji" font-size="36px" fill="#000000" text-anchor="middle" style="white-space: pre;" direction="ltr" dominant-baseline="text-before-edge">Client</text></g><g stroke-linecap="round" transform="translate(925.6640625 803.6796875) rotate(0 215.046875 216.48046874999994)"><path d="M1.65 -0.97 C145.67 -2.14, 293.22 -1.66, 431.12 1.59 M-0.61 -0.51 C150.73 0.62, 303.59 1.79, 430.94 -0.03 M428.62 -0.44 C427.99 104.32, 429.12 210.35, 428.74 431.09 M429.23 -0.14 C432.48 99.29, 432.71 198.18, 430.93 433.32 M428.68 432.44 C318.05 434.52, 208.05 434.09, -1.95 434.02 M429.51 432.57 C261.91 432.49, 91 433.81, 0.73 433.51 M-2.04 431.74 C-2.05 323.12, -1.11 207.92, -1.91 -1.46 M-0.49 432.11 C-4.12 337.04, -3.69 240.9, 0.63 -0.56" stroke="#000000" stroke-width="4" fill="none"></path></g><g transform="translate(1092.0209655761719 998.56015625) rotate(0 48.689971923828125 21.600000000000023)"><text x="48.689971923828125" y="0" font-family="Virgil, Segoe UI Emoji" font-size="36px" fill="#000000" text-anchor="middle" style="white-space: pre;" direction="ltr" dominant-baseline="text-before-edge">Client</text></g><g stroke-linecap="round" transform="translate(1427.4453125 803.6796875) rotate(0 215.046875 216.48046874999994)"><path d="M-2.05 -1.65 C93.47 -3.81, 188.45 -2.69, 428.91 1.55 M-0.17 -0.71 C151.96 2.84, 303.89 2.59, 429.14 1.03 M431.45 -1.53 C424.68 104.91, 424.56 212.95, 431.65 434.35 M430.33 -0.47 C428.47 92.53, 427.92 185.12, 431.11 432.17 M431.4 433.1 C305.37 432.21, 182.92 433.06, 1.41 431.04 M429.61 433.34 C288.3 433.64, 146.17 433.85, -0.03 433.37 M-0.3 433.07 C1.82 276.9, 2.19 122.86, -0.1 0.17 M-0.06 432.93 C-3.92 275.44, -2.41 117.43, 0.58 -0.25" stroke="#000000" stroke-width="4" fill="none"></path></g><g transform="translate(1593.8022155761719 998.56015625) rotate(0 48.689971923828125 21.600000000000023)"><text x="48.689971923828125" y="0" font-family="Virgil, Segoe UI Emoji" font-size="36px" fill="#000000" text-anchor="middle" style="white-space: pre;" direction="ltr" dominant-baseline="text-before-edge">Client</text></g><g stroke-linecap="round"><g transform="translate(737.1970404200592 1972.4808426928364) rotate(0 -242.33006601057332 148.92701508905097)"><path d="M0.99 -0.87 C-130.61 74.82, -259.73 155.97, -485.23 298.72 M-0.74 0.33 C-173.42 105.94, -345.8 211.96, -485.65 297.39" stroke="#000000" stroke-width="1" fill="none"></path></g><g transform="translate(737.1970404200592 1972.4808426928364) rotate(0 -242.33006601057332 148.92701508905097)"><path d="M-464.49 271.74 C-474.91 276.37, -478.16 286.59, -485.07 300.27 M-468.81 274.75 C-475.31 283.01, -478.32 290.06, -486.11 296.93" stroke="#000000" stroke-width="1" fill="none"></path></g><g transform="translate(737.1970404200592 1972.4808426928364) rotate(0 -242.33006601057332 148.92701508905097)"><path d="M-453.78 289.25 C-467.12 289.01, -473.24 294.54, -485.07 300.27 M-458.1 292.26 C-468.61 294.19, -475.46 294.97, -486.11 296.93" stroke="#000000" stroke-width="1" fill="none"></path></g></g><mask></mask><g stroke-linecap="round" transform="translate(17.0546875 2253.015625) rotate(0 157.1328125 146.97656249999994)"><path d="M106.52 6.92 C120.7 0.34, 140.19 1.33, 156.58 1.39 C172.96 1.45, 189.15 2.68, 204.83 7.28 C220.5 11.88, 237.61 20.49, 250.64 28.98 C263.68 37.47, 273.59 46.38, 283.04 58.22 C292.49 70.07, 301.89 85.28, 307.34 100.05 C312.79 114.82, 315.99 131.43, 315.74 146.84 C315.49 162.25, 310.64 178.54, 305.83 192.5 C301.01 206.47, 296.16 218.6, 286.84 230.62 C277.53 242.64, 263.38 255.41, 249.92 264.64 C236.45 273.88, 221.03 281.42, 206.06 286.04 C191.1 290.66, 176.37 292.51, 160.13 292.37 C143.89 292.23, 124.4 289.26, 108.62 285.2 C92.84 281.13, 78.27 276.22, 65.47 267.96 C52.68 259.71, 41.1 248.25, 31.85 235.64 C22.6 223.03, 15.11 206.82, 9.97 192.29 C4.83 177.77, 1.48 163.43, 1.01 148.51 C0.54 133.59, 2.37 117.06, 7.17 102.77 C11.96 88.48, 20.36 75.44, 29.79 62.77 C39.22 50.09, 42.23 36.97, 63.74 26.7 C85.25 16.43, 134.86 3.74, 158.87 1.16 C182.87 -1.43, 207.78 8.9, 207.76 11.19 M49.62 42.63 C58.34 30.68, 71.34 20.12, 85.53 12.96 C99.72 5.81, 118.71 2.01, 134.76 -0.28 C150.81 -2.58, 166.45 -3.26, 181.84 -0.8 C197.23 1.65, 212.12 6.54, 227.12 14.44 C242.12 22.35, 260.15 35.62, 271.85 46.65 C283.54 57.68, 290.98 67.65, 297.29 80.62 C303.59 93.6, 307.03 109.36, 309.67 124.48 C312.31 139.6, 315.67 156.23, 313.13 171.35 C310.6 186.46, 302.03 201.3, 294.46 215.14 C286.89 228.99, 278.67 243.93, 267.71 254.44 C256.76 264.95, 243.1 271.68, 228.72 278.2 C214.33 284.72, 197.18 291.02, 181.39 293.56 C165.6 296.09, 150.33 296.01, 133.98 293.42 C117.63 290.82, 97.82 284.86, 83.28 277.97 C68.74 271.07, 57.84 263.31, 46.73 252.06 C35.61 240.8, 23.68 223.97, 16.61 210.43 C9.55 196.9, 6.98 185.41, 4.33 170.85 C1.69 156.29, -1.98 138.24, 0.72 123.08 C3.42 107.92, 13.14 93.07, 20.54 79.88 C27.94 66.68, 40.66 49.64, 45.12 43.91 C49.58 38.19, 44.91 44.07, 47.31 45.55" stroke="#000000" stroke-width="1" fill="none"></path></g><g transform="translate(72.70186906001891 2356.864063480761) rotate(0 101.3759536743164 43.19999999999999)"><text x="101.3759536743164" y="0" font-family="Virgil, Segoe UI Emoji" font-size="36px" fill="#000000" text-anchor="middle" style="white-space: pre;" direction="ltr" dominant-baseline="text-before-edge">Registra il </text><text x="101.3759536743164" y="43.199999999999996" font-family="Virgil, Segoe UI Emoji" font-size="36px" fill="#000000" text-anchor="middle" style="white-space: pre;" direction="ltr" dominant-baseline="text-before-edge">SW</text></g><g stroke-linecap="round"><g transform="translate(205.75234826837277 2549.76932923545) rotate(0 2.3621807058261766 50.47426420127016)"><path d="M0.87 -1.88 C4.34 18.05, -0.02 42.69, 4.01 99.43 M-1.5 0.51 C0.47 29.89, 4.46 61.81, 6.23 102.83" stroke="#1864ab" stroke-width="1" fill="none"></path></g><g transform="translate(205.75234826837277 2549.76932923545) rotate(0 2.3621807058261766 50.47426420127016)"><path d="M-4.83 73.42 C0.36 77.25, -3.05 85.87, 2.71 99.78 M-7.2 75.81 C-3.02 82.52, 2.3 91.76, 4.92 103.18" stroke="#1864ab" stroke-width="1" fill="none"></path></g><g transform="translate(205.75234826837277 2549.76932923545) rotate(0 2.3621807058261766 50.47426420127016)"><path d="M15.66 72.19 C16.45 76.63, 8.66 85.51, 2.71 99.78 M13.28 74.58 C11.25 81.7, 10.38 91.32, 4.92 103.18" stroke="#1864ab" stroke-width="1" fill="none"></path></g></g><mask></mask><g stroke-linecap="round" transform="translate(121.96875 2649.234375) rotate(0 142.3046875 142.3046874999999)"><path d="M247.89 47.51 C259.19 56.49, 267.45 73.55, 273.55 87.09 C279.66 100.63, 282.98 114.12, 284.51 128.77 C286.05 143.41, 286.25 160.4, 282.77 174.97 C279.29 189.55, 271.19 203.76, 263.63 216.21 C256.07 228.66, 248.17 240.06, 237.41 249.7 C226.65 259.34, 213.03 268.36, 199.07 274.05 C185.11 279.73, 168.55 282.82, 153.65 283.8 C138.75 284.79, 123.87 283.21, 109.68 279.95 C95.49 276.7, 81.18 271.34, 68.51 264.27 C55.83 257.2, 43.04 248.64, 33.63 237.54 C24.23 226.44, 17.71 211.64, 12.06 197.65 C6.4 183.65, 1.21 167.96, -0.31 153.55 C-1.84 139.15, -0.51 124.91, 2.9 111.2 C6.3 97.5, 12.66 83.98, 20.13 71.33 C27.6 58.68, 36.77 45.36, 47.7 35.31 C58.63 25.25, 72.31 17.11, 85.7 11 C99.08 4.89, 113.55 -0.33, 128 -1.34 C142.45 -2.34, 157.94 1.23, 172.4 4.99 C186.86 8.75, 200.77 12.79, 214.75 21.25 C228.73 29.7, 249.42 48.93, 256.27 55.7 C263.11 62.47, 257.94 60.85, 255.83 61.85 M192.99 9.15 C206.66 12.1, 219.9 24.86, 231.23 33.8 C242.56 42.74, 252.96 51.27, 260.96 62.81 C268.96 74.34, 275.8 88.8, 279.22 103 C282.64 117.21, 281.82 132.97, 281.47 148.03 C281.13 163.08, 282.22 179.13, 277.14 193.32 C272.06 207.52, 260.44 221.44, 251.01 233.2 C241.58 244.95, 232.55 255.99, 220.56 263.87 C208.57 271.74, 193.38 276.78, 179.08 280.44 C164.78 284.1, 149.66 286.64, 134.76 285.83 C119.86 285.02, 103.01 281.14, 89.67 275.58 C76.33 270.03, 65.89 262.23, 54.69 252.5 C43.5 242.77, 30.53 229.86, 22.5 217.2 C14.48 204.55, 9.95 190.43, 6.56 176.56 C3.18 162.68, 1.99 148.12, 2.21 133.95 C2.43 119.79, 2.51 105.13, 7.86 91.56 C13.22 77.99, 24.59 63.92, 34.34 52.52 C44.09 41.12, 54.07 31.37, 66.35 23.15 C78.63 14.94, 93.97 7.04, 108.03 3.23 C122.09 -0.59, 136.27 -0.53, 150.7 0.28 C165.12 1.08, 187.18 5.84, 194.56 8.06 C201.93 10.29, 195.59 11.69, 194.93 13.64" stroke="#e67700" stroke-width="1" fill="none"></path></g><g transform="translate(189.07086319140217 2748.214452974117) rotate(0 75.07796478271484 43.200000000000045)"><text x="75.07796478271484" y="0" font-family="Virgil, Segoe UI Emoji" font-size="36px" fill="#e67700" text-anchor="middle" style="white-space: pre;" direction="ltr" dominant-baseline="text-before-edge">Inizia il </text><text x="75.07796478271484" y="43.199999999999996" font-family="Virgil, Segoe UI Emoji" font-size="36px" fill="#e67700" text-anchor="middle" style="white-space: pre;" direction="ltr" dominant-baseline="text-before-edge">polling</text></g><g mask="url(#mask-D58lDLL2CUhVu73R2m86w)" stroke-linecap="round"><g transform="translate(354.42366137188765 2909.9346157150694) rotate(0 201.52909178253685 139.6543466418666)"><path d="M-0.85 -1.08 C134.87 95.39, 271.2 186.99, 402.66 278.22 M0.34 0.64 C83.75 59.64, 166.26 116.13, 403.91 280.38" stroke="#e67700" stroke-width="1" fill="none"></path></g><g transform="translate(354.42366137188765 2909.9346157150694) rotate(0 201.52909178253685 139.6543466418666)"><path d="M372.83 270.21 C384.36 278.19, 394.82 274.21, 402.12 276.94 M375.7 274.34 C380.29 275.71, 384.97 274.67, 405.13 282.15" stroke="#e67700" stroke-width="1" fill="none"></path></g><g transform="translate(354.42366137188765 2909.9346157150694) rotate(0 201.52909178253685 139.6543466418666)"><path d="M384.49 253.33 C391.94 267, 398.46 268.72, 402.12 276.94 M387.36 257.46 C389.69 262.19, 391.98 264.62, 405.13 282.15" stroke="#e67700" stroke-width="1" fill="none"></path></g></g><mask id="mask-D58lDLL2CUhVu73R2m86w"><rect x="0" y="0" fill="#fff" width="857.828125" height="3289.5855073053667"></rect><rect x="429.72995049795554" y="3028.160061510218" fill="#000" width="252.79188537597656" height="43.199999999999996" opacity="1"></rect></mask><g transform="translate(429.72995049795554 3028.160061510218) rotate(0 126.22280265646896 21.428900846717852)"><text x="126.39594268798828" y="0" font-family="Virgil, Segoe UI Emoji" font-size="36px" fill="#e67700" text-anchor="middle" style="white-space: pre;" direction="ltr" dominant-baseline="text-before-edge">postMessage()</text></g><g stroke-linecap="round" transform="translate(765.609375 2874.921874999999) rotate(0 62.23046875 477.1093749999998)"><path d="M-1.05 -3.37 C29.76 3.39, 68.78 -1.42, 121.13 -2.04 M0.93 0.48 C43.7 1.15, 82.58 0.76, 125.39 -1.18 M123.68 1 C130.24 380.44, 129.56 760.41, 123.77 955.02 M123.77 0.43 C130.07 314.54, 128.91 630.56, 123.89 953.57 M123.5 954.79 C77.41 950.54, 30.39 955.41, 0.95 957.25 M126.3 953.97 C77.13 955.24, 28.46 956.17, -1.67 952.46 M0.13 955.81 C6.93 591.02, 6.34 230.91, 0.25 -0.64 M-0.8 954.99 C1.56 628.14, 1.07 302.34, 0.57 0.03" stroke="#e67700" stroke-width="1" fill="none"></path></g><g transform="translate(469.9166564941406 3327.1458435058585) rotate(89.99999999999994 360.1978759765625 21.600000000000023)"><text x="0" y="0" font-family="Virgil, Segoe UI Emoji" font-size="36px" fill="#e67700" text-anchor="start" style="white-space: pre;" direction="ltr" dominant-baseline="text-before-edge">ServiceWorkerGlobalScope Event Listener</text></g><g stroke-linecap="round" transform="translate(10 2617.742187499999) rotate(0 1050 636.5)"><path d="M-0.98 0.64 C738.4 -6.08, 1475.74 -5.92, 2100.78 -0.82 M2100.33 1.26 C2096.71 440.53, 2097.66 883.81, 2099.81 1274.28 M2099.9 1273.92 C1677.19 1277.67, 1256.3 1275.39, -0.74 1273.66 M0.89 1272.16 C-5.4 868.28, -5.6 461.96, -0.76 -1.06" stroke="#e67700" stroke-width="4.5" fill="none" stroke-dasharray="8 12"></path></g><g transform="translate(935.2060470581055 2622.742187499999) rotate(0 124.79395294189453 21.600000000000023)"><text x="124.79395294189453" y="0" font-family="Virgil, Segoe UI Emoji" font-size="36px" fill="#e67700" text-anchor="middle" style="white-space: pre;" direction="ltr" dominant-baseline="text-before-edge">Service worker</text></g><g stroke-linecap="round"><g transform="translate(896.7265625 3143.8359374999995) rotate(0 105.76586211733729 -30.170876095959443)"><path d="M3.45 3.02 C50.07 -11.95, 95.07 -25.51, 211.88 -59.81 M-0.35 -0.31 C42.73 -15.21, 87.37 -26.58, 211.72 -63.36" stroke="#e67700" stroke-width="1" fill="none"></path></g><g transform="translate(896.7265625 3143.8359374999995) rotate(0 105.76586211733729 -30.170876095959443)"><path d="M191.53 -42.12 C194.42 -49.71, 195.75 -52.73, 212.41 -59.89 M187.13 -45.97 C191.15 -50.52, 197.27 -52.32, 212.23 -63.99" stroke="#e67700" stroke-width="1" fill="none"></path></g><g transform="translate(896.7265625 3143.8359374999995) rotate(0 105.76586211733729 -30.170876095959443)"><path d="M185.77 -61.82 C189.87 -64.78, 192.52 -63.26, 212.41 -59.89 M181.38 -65.66 C186.45 -66.18, 193.76 -63.92, 212.23 -63.99" stroke="#e67700" stroke-width="1" fill="none"></path></g></g><mask></mask><g stroke-linecap="round" transform="translate(1117.8359375 2907.8515624999995) rotate(0 263 160)"><path d="M243.71 1.63 C265.04 -1.67, 289.16 1.25, 311.6 3.55 C334.04 5.85, 357.71 9.58, 378.36 15.41 C399 21.24, 418.5 29.69, 435.46 38.54 C452.41 47.39, 467.8 57.35, 480.09 68.51 C492.38 79.68, 501.64 92.15, 509.19 105.53 C516.73 118.91, 523.09 134.56, 525.38 148.79 C527.67 163.03, 526.9 177.66, 522.9 190.94 C518.91 204.23, 511.27 216.27, 501.4 228.49 C491.53 240.71, 478.35 253.37, 463.67 264.27 C448.98 275.16, 431.86 285.89, 413.29 293.85 C394.71 301.8, 374.05 307.79, 352.22 311.97 C330.39 316.15, 305.22 317.78, 282.31 318.93 C259.41 320.08, 237.23 321.01, 214.77 318.88 C192.31 316.76, 168.21 312.73, 147.57 306.17 C126.92 299.61, 108.06 288.51, 90.92 279.53 C73.77 270.56, 57.19 263.14, 44.69 252.32 C32.19 241.5, 23.31 228.11, 15.92 214.62 C8.52 201.13, 2.31 185.07, 0.31 171.37 C-1.7 157.67, -0.18 145.89, 3.86 132.44 C7.91 118.99, 14.86 103.42, 24.57 90.68 C34.29 77.93, 46.93 66.2, 62.16 55.98 C77.39 45.76, 97.19 37.19, 115.96 29.36 C134.73 21.52, 142.62 13.49, 174.79 9 C206.96 4.51, 276.66 1.04, 309 2.4 C341.35 3.77, 369.97 14.78, 368.86 17.19 M359.06 13.05 C380.58 15.31, 403.98 25.22, 422.03 33.32 C440.09 41.41, 454.08 50.9, 467.39 61.61 C480.7 72.32, 492.43 85.46, 501.89 97.57 C511.35 109.69, 520.76 120.7, 524.13 134.29 C527.5 147.88, 525.02 164.75, 522.1 179.1 C519.19 193.46, 514.87 207.85, 506.66 220.42 C498.46 232.99, 486.09 243.19, 472.88 254.52 C459.66 265.85, 444.93 279.72, 427.36 288.38 C409.8 297.03, 388.29 301.94, 367.48 306.45 C346.67 310.97, 324.96 313.69, 302.48 315.46 C280.01 317.23, 255.67 317.89, 232.64 317.09 C209.6 316.29, 185.24 315.22, 164.28 310.67 C143.31 306.13, 124.57 298.78, 106.86 289.84 C89.16 280.91, 72.73 267.68, 58.05 257.08 C43.37 246.47, 28.05 238.57, 18.78 226.24 C9.51 213.91, 5.22 197.17, 2.43 183.08 C-0.35 168.99, -0.48 155.71, 2.05 141.69 C4.57 127.66, 9.03 111.39, 17.58 98.92 C26.12 86.45, 40.02 77.8, 53.29 66.85 C66.57 55.89, 79.33 42.36, 97.23 33.17 C115.14 23.98, 138.93 16.76, 160.71 11.71 C182.5 6.66, 205.45 4.45, 227.94 2.85 C250.43 1.25, 273.85 1.14, 295.66 2.11 C317.48 3.08, 348.37 6.25, 358.83 8.66 C369.3 11.08, 359.63 13.39, 358.45 16.61" stroke="#e67700" stroke-width="1" fill="none"></path></g><g transform="translate(1211.3609336377822 3024.5144775101517) rotate(0 169.50592041015625 43.200000000000045)"><text x="169.50592041015625" y="0" font-family="Virgil, Segoe UI Emoji" font-size="36px" fill="#e67700" text-anchor="middle" style="white-space: pre;" direction="ltr" dominant-baseline="text-before-edge">istanzia intervallo </text><text x="169.50592041015625" y="43.199999999999996" font-family="Virgil, Segoe UI Emoji" font-size="36px" fill="#e67700" text-anchor="middle" style="white-space: pre;" direction="ltr" dominant-baseline="text-before-edge">del polling</text></g><g stroke-linecap="round" transform="translate(1117.8359375 3289.2656249999995) rotate(0 263 160)"><path d="M94.81 36.48 C108.64 26.3, 131.61 20.52, 151.93 14.91 C172.25 9.29, 194.42 5.09, 216.74 2.82 C239.06 0.55, 263.21 0.11, 285.84 1.26 C308.47 2.42, 330.67 5.21, 352.52 9.73 C374.37 14.25, 398.35 20.61, 416.94 28.38 C435.53 36.16, 449.92 45.42, 464.07 56.39 C478.21 67.37, 492 81.29, 501.81 94.24 C511.63 107.19, 519.41 120.76, 522.96 134.1 C526.51 147.45, 525.18 161.04, 523.09 174.3 C521 187.56, 518.35 200.38, 510.44 213.68 C502.54 226.99, 489.16 242.58, 475.66 254.11 C462.17 265.65, 446.71 274.05, 429.5 282.89 C412.28 291.74, 392.63 301.59, 372.37 307.17 C352.11 312.75, 329.9 314.14, 307.94 316.36 C285.97 318.58, 263.09 321.79, 240.56 320.47 C218.03 319.15, 194.42 313.45, 172.76 308.43 C151.11 303.4, 129.21 297.79, 110.63 290.32 C92.05 282.86, 76 274.12, 61.28 263.63 C46.56 253.13, 31.97 239.93, 22.32 227.35 C12.66 214.77, 7.15 201.64, 3.36 188.15 C-0.43 174.67, -2.75 160.06, -0.4 146.43 C1.95 132.81, 9.34 119.78, 17.48 106.4 C25.62 93.01, 24.08 82.1, 48.42 66.12 C72.75 50.13, 130.85 20.86, 163.5 10.48 C196.15 0.1, 242.52 0.89, 244.32 3.83 M46.8 70.49 C55.77 57.95, 77.55 44.67, 95.06 35.7 C112.57 26.72, 131.23 22.38, 151.86 16.65 C172.49 10.92, 196.08 4.01, 218.84 1.32 C241.59 -1.36, 265.97 -0.67, 288.38 0.54 C310.8 1.75, 331.96 3.71, 353.34 8.58 C374.72 13.45, 398.03 21.67, 416.66 29.77 C435.29 37.86, 450.73 46.57, 465.12 57.14 C479.51 67.71, 493.91 80.27, 502.98 93.18 C512.06 106.08, 516.26 120.93, 519.57 134.56 C522.88 148.18, 524.97 161.73, 522.85 174.92 C520.74 188.12, 514.15 200.71, 506.88 213.73 C499.6 226.75, 491.32 241.6, 479.2 253.02 C467.08 264.45, 451.67 273.59, 434.15 282.28 C416.63 290.98, 395.35 299.17, 374.09 305.21 C352.82 311.24, 328.66 315.93, 306.54 318.49 C284.41 321.04, 264.14 322.25, 241.31 320.52 C218.49 318.79, 191.65 313.02, 169.59 308.12 C147.53 303.22, 127.47 298.3, 108.93 291.11 C90.4 283.92, 72.29 275.94, 58.4 264.96 C44.51 253.99, 34.36 238.05, 25.6 225.27 C16.85 212.49, 9.56 201.6, 5.86 188.28 C2.17 174.96, 1.61 158.83, 3.41 145.35 C5.22 131.86, 9.31 120.72, 16.68 107.37 C24.05 94.01, 41.91 71.99, 47.64 65.22 C53.36 58.44, 46.97 64.82, 51.03 66.73" stroke="#e67700" stroke-width="1" fill="none"></path></g><g transform="translate(1210.1549247266494 3384.328540010152) rotate(0 170.71192932128906 64.79999999999995)"><text x="170.71192932128906" y="0" font-family="Virgil, Segoe UI Emoji" font-size="36px" fill="#e67700" text-anchor="middle" style="white-space: pre;" direction="ltr" dominant-baseline="text-before-edge">Ad ogni intervallo </text><text x="170.71192932128906" y="43.199999999999996" font-family="Virgil, Segoe UI Emoji" font-size="36px" fill="#e67700" text-anchor="middle" style="white-space: pre;" direction="ltr" dominant-baseline="text-before-edge">riceve una risposta</text><text x="170.71192932128906" y="86.39999999999999" font-family="Virgil, Segoe UI Emoji" font-size="36px" fill="#e67700" text-anchor="middle" style="white-space: pre;" direction="ltr" dominant-baseline="text-before-edge">   dal servizio</text></g><g stroke-linecap="round" transform="translate(896.203125 2288.2265624999995) rotate(0 732.8085937499995 86.484375)"><path d="M0.69 -0.55 C336.15 3.54, 674.96 3.05, 1465.36 0.77 M-0.41 0.53 C300.37 7.54, 600.59 6.57, 1464.9 0.78 M1466.03 -1.38 C1462.93 51.59, 1468.79 96.36, 1463.9 175.38 M1466.98 0.68 C1468.16 42.3, 1469.2 89.69, 1466.47 174.18 M1464.48 172.47 C1079.93 182.62, 690.65 181.13, -1.29 174.55 M1465.91 173.18 C1057 164.87, 649.3 163.99, -0.68 172.51 M3.87 171.99 C0.97 126.92, -0.45 73.88, -1.01 -3.5 M1.09 171.27 C-2.23 130.5, -0.67 88.2, -1.16 -1.02" stroke="#364fc7" stroke-width="1" fill="none"></path></g><g transform="translate(1492.4637451171866 2353.1109374999996) rotate(0 136.5479736328125 21.600000000000023)"><text x="136.5479736328125" y="0" font-family="Virgil, Segoe UI Emoji" font-size="36px" fill="#364fc7" text-anchor="middle" style="white-space: pre;" direction="ltr" dominant-baseline="text-before-edge">Broadcast API</text></g><g stroke-linecap="round" transform="translate(1638.5234375 2672.5156249999995) rotate(0 161.48936906645577 119.23046875)"><path d="M163.24 1.43 C199.52 34.2, 240.22 64.02, 319.38 119.22 M163.7 0.11 C224.45 45.63, 284.8 90.86, 324.64 118.63 M322.53 120.57 C264.98 162.17, 209.62 205.26, 163.39 237.37 M323.06 121.79 C289.45 143.96, 256.84 168.29, 161.02 240.29 M158.94 240.87 C116.22 204.41, 71.8 169.95, 1.88 122.77 M160.78 236.66 C126.6 213.04, 95.33 187.6, 1.29 118.27 M-1.12 120.83 C50.98 79.7, 103.11 39.86, 161.4 -0.51 M-1.23 119.67 C40.17 85.86, 81.95 56.27, 160.48 0.94" stroke="#e67700" stroke-width="1" fill="none"></path></g><g transform="translate(1742.5454352656498 2760.4308593749993) rotate(0 57.222686767578125 31.200000000000045)"><text x="57.222686767578125" y="0" font-family="Virgil, Segoe UI Emoji" font-size="26.647058823529395px" fill="#e67700" text-anchor="middle" style="white-space: pre;" direction="ltr" dominant-baseline="text-before-edge">Stai </text><text x="57.222686767578125" y="31.2" font-family="Virgil, Segoe UI Emoji" font-size="26.647058823529395px" fill="#e67700" text-anchor="middle" style="white-space: pre;" direction="ltr" dominant-baseline="text-before-edge">pollando?</text></g><g stroke-linecap="round" transform="translate(990.8125 1547.1953124999995) rotate(0 214 158)"><path d="M213.96 -1.36 C289.88 58.56, 365.37 114.86, 427.28 162.04 M214.6 -1.52 C271.48 42.08, 326.68 83.77, 426.99 160.11 M429.87 157.37 C372.53 196.05, 320.85 235.98, 213.43 315.5 M427.36 159.98 C383.52 191.9, 341.66 227.53, 216.05 315.06 M212.2 314.8 C141.11 254.27, 59.34 199.74, -1.32 156.2 M215.1 316.59 C168.02 283.9, 125.49 251.06, -0.66 158.77 M-3.02 161.99 C79.28 103.24, 159.98 40.01, 214.99 -2.75 M-1.14 159.2 C57.08 119.76, 110.98 81.04, 215.37 -1.11" stroke="#000000" stroke-width="1" fill="none"></path></g><g transform="translate(1109.7005462646484 1683.5953124999996) rotate(0 95.11195373535156 21.599999999999994)"><text x="95.11195373535156" y="0" font-family="Virgil, Segoe UI Emoji" font-size="36px" fill="#000000" text-anchor="middle" style="white-space: pre;" direction="ltr" dominant-baseline="text-before-edge">SW esiste?</text></g><g stroke-linecap="round" transform="translate(726.765625 1804.9921874999995) rotate(0 110.546875 110.546875)"><path d="M131.62 3.68 C144.47 4.19, 156.93 9.49, 168.4 16.21 C179.87 22.93, 191.99 33.05, 200.43 44.02 C208.86 54.99, 215.61 69, 218.98 82.01 C222.36 95.03, 222.17 109.17, 220.65 122.09 C219.14 135.02, 215.77 147.97, 209.88 159.56 C203.99 171.15, 195.33 182.25, 185.31 191.63 C175.3 201.01, 162.65 211.04, 149.81 215.85 C136.97 220.67, 121.7 220.7, 108.27 220.5 C94.84 220.3, 81.54 219.72, 69.23 214.66 C56.91 209.59, 43.9 199.39, 34.38 190.12 C24.86 180.85, 17.98 170.85, 12.11 159.02 C6.23 147.19, 0.1 132.46, -0.88 119.15 C-1.86 105.84, 2.01 91.75, 6.22 79.13 C10.44 66.52, 16.92 53.74, 24.41 43.47 C31.89 33.2, 39.71 24.66, 51.14 17.52 C62.58 10.38, 77.05 2.35, 93 0.63 C108.94 -1.09, 135.63 5.03, 146.8 7.19 C157.97 9.34, 160.82 12.25, 160.03 13.54 M85.33 3.04 C97.35 -1.45, 112.01 -2.31, 125.75 -0.18 C139.49 1.95, 156.29 8.58, 167.75 15.82 C179.21 23.07, 186.03 33.51, 194.49 43.29 C202.96 53.07, 214.45 62.11, 218.55 74.48 C222.65 86.84, 220.37 103.52, 219.09 117.5 C217.81 131.48, 216.23 146.44, 210.87 158.37 C205.52 170.31, 195.91 180.2, 186.97 189.11 C178.02 198.01, 169.3 206.88, 157.19 211.8 C145.08 216.73, 128.5 218.33, 114.33 218.65 C100.15 218.96, 84.98 218.07, 72.13 213.69 C59.27 209.32, 47.41 200.86, 37.22 192.4 C27.03 183.93, 16.6 174.13, 11 162.9 C5.39 151.67, 4.42 138, 3.6 125.03 C2.78 112.07, 3.88 98.18, 6.06 85.11 C8.25 72.04, 9.43 57.66, 16.73 46.61 C24.03 35.56, 38.55 26.34, 49.88 18.82 C61.21 11.29, 78.3 4.03, 84.7 1.48 C91.1 -1.06, 87.59 1.38, 88.3 3.53" stroke="#000000" stroke-width="1" fill="none"></path></g><g transform="translate(815.5800596871904 1893.770617548518) rotate(0 21.563995361328125 21.599999999999994)"><text x="21.563995361328125" y="0" font-family="Virgil, Segoe UI Emoji" font-size="36px" fill="#000000" text-anchor="middle" style="white-space: pre;" direction="ltr" dominant-baseline="text-before-edge">No</text></g><g stroke-linecap="round"><g transform="translate(1078.109375 1768.2421874999995) rotate(0 -72.95171887127844 38.89907675161163)"><path d="M1.2 -1.73 C-51.47 25.11, -102.76 50.05, -145.2 79.53 M1.03 0.57 C-45.31 23.21, -89.97 47.81, -147.11 78.18" stroke="#000000" stroke-width="1" fill="none"></path></g><g transform="translate(1078.109375 1768.2421874999995) rotate(0 -72.95171887127844 38.89907675161163)"><path d="M-125.88 54.11 C-135.05 63.46, -143 68.69, -145.68 77.82 M-126.05 56.42 C-133.99 62.09, -140.54 69.36, -147.58 76.47" stroke="#000000" stroke-width="1" fill="none"></path></g><g transform="translate(1078.109375 1768.2421874999995) rotate(0 -72.95171887127844 38.89907675161163)"><path d="M-116.2 72.21 C-128.65 75.19, -139.91 74.23, -145.68 77.82 M-116.38 74.52 C-127.15 74.71, -136.6 76.53, -147.58 76.47" stroke="#000000" stroke-width="1" fill="none"></path></g></g><mask></mask><g stroke-linecap="round"><g transform="translate(633.8671875 1245.9062499999995) rotate(0 236.27117487043142 184.5324536934495)"><path d="M1.53 -1.42 C101.47 82.6, 206.34 164.41, 473.12 370.02 M-0.58 0.76 C100.91 80.7, 201.22 158.57, 472.7 370.49" stroke="#000000" stroke-width="1" fill="none"></path></g><g transform="translate(633.8671875 1245.9062499999995) rotate(0 236.27117487043142 184.5324536934495)"><path d="M447.99 357.68 C446.56 363.11, 458.47 368.63, 471.86 367.71 M442.71 363.13 C450.34 363.21, 458.16 364.68, 470.8 368.87" stroke="#000000" stroke-width="1" fill="none"></path></g><g transform="translate(633.8671875 1245.9062499999995) rotate(0 236.27117487043142 184.5324536934495)"><path d="M460.62 341.5 C456.49 350.28, 465.67 359.3, 471.86 367.71 M455.33 346.95 C460.45 350.25, 465.61 355.12, 470.8 368.87" stroke="#000000" stroke-width="1" fill="none"></path></g></g><mask></mask><g stroke-linecap="round"><g transform="translate(1148.0625 1238.4999999999995) rotate(0 24.197973827738224 151.75019166946208)"><path d="M1.89 -0.79 C19.7 97.55, 35.32 194.65, 47.07 304.29 M1.01 0.72 C18.16 96.95, 31.55 193.09, 47.39 302.49" stroke="#000000" stroke-width="1" fill="none"></path></g><g transform="translate(1148.0625 1238.4999999999995) rotate(0 24.197973827738224 151.75019166946208)"><path d="M35.82 274.97 C41.09 283.7, 45.58 291.07, 45.52 305.36 M34.6 277.05 C39.71 285.85, 41.38 293.83, 45.96 302.87" stroke="#000000" stroke-width="1" fill="none"></path></g><g transform="translate(1148.0625 1238.4999999999995) rotate(0 24.197973827738224 151.75019166946208)"><path d="M56.13 272.03 C54.84 281.51, 52.75 289.84, 45.52 305.36 M54.91 274.12 C53.56 284.25, 48.75 293.17, 45.96 302.87" stroke="#000000" stroke-width="1" fill="none"></path></g></g><mask></mask><g stroke-linecap="round"><g transform="translate(1627.25 1239.7968749999995) rotate(0 -171.25508513276236 177.94214422079534)"><path d="M-1.46 -1.14 C-84.45 92.15, -173.52 186.34, -340.16 356.85 M-0.81 -0.47 C-122.31 130.59, -248.5 260.95, -341.7 357.03" stroke="#000000" stroke-width="1" fill="none"></path></g><g transform="translate(1627.25 1239.7968749999995) rotate(0 -171.25508513276236 177.94214422079534)"><path d="M-333.04 326.85 C-330.97 333.91, -337.83 347.07, -339.41 356.23 M-331.44 328.49 C-331.82 339.64, -339.48 348.65, -343.18 356.65" stroke="#000000" stroke-width="1" fill="none"></path></g><g transform="translate(1627.25 1239.7968749999995) rotate(0 -171.25508513276236 177.94214422079534)"><path d="M-318.29 341.12 C-320.27 344.69, -330.92 354.19, -339.41 356.23 M-316.7 342.76 C-322.66 348.67, -335.71 352.45, -343.18 356.65" stroke="#000000" stroke-width="1" fill="none"></path></g></g><mask></mask><g stroke-linecap="round"><g transform="translate(1334.234375 1768.1718749999995) rotate(0 81.97891500964761 44.685332879424095)"><path d="M3.07 -1.3 C48.31 29.88, 100.19 56.11, 163.03 90.68 M0.93 -0.28 C60.42 36.22, 121.87 69.97, 157.69 90.1" stroke="#000000" stroke-width="1" fill="none"></path></g><g transform="translate(1334.234375 1768.1718749999995) rotate(0 81.97891500964761 44.685332879424095)"><path d="M131.15 83.98 C135.22 86.92, 144.86 85.72, 161.31 91.7 M129.01 85 C138.77 88.85, 149.4 89.6, 155.97 91.12" stroke="#000000" stroke-width="1" fill="none"></path></g><g transform="translate(1334.234375 1768.1718749999995) rotate(0 81.97891500964761 44.685332879424095)"><path d="M141.17 66.07 C141.75 74.77, 148.13 79.41, 161.31 91.7 M139.03 67.1 C144.64 77.98, 151.34 85.75, 155.97 91.12" stroke="#000000" stroke-width="1" fill="none"></path></g></g><mask></mask><g stroke-linecap="round" transform="translate(1482.0078125 1813.0859374999995) rotate(0 110.546875 110.546875)"><path d="M104.29 -1.81 C116.5 -3.83, 130.22 2, 142.99 6.42 C155.76 10.84, 170.53 16.17, 180.9 24.7 C191.28 33.22, 198.44 46.23, 205.23 57.57 C212.01 68.91, 219.67 79.77, 221.61 92.72 C223.56 105.68, 220.23 122.36, 216.89 135.29 C213.55 148.22, 209.04 159.32, 201.57 170.31 C194.09 181.3, 182.88 193.55, 172.05 201.2 C161.21 208.85, 149.09 213.3, 136.58 216.22 C124.07 219.13, 110.05 219.88, 97.01 218.7 C83.96 217.52, 70.12 215.09, 58.32 209.14 C46.52 203.19, 35.16 193.15, 26.19 182.99 C17.22 172.82, 8.7 160.93, 4.5 148.15 C0.3 135.37, 0.21 119.99, 1 106.29 C1.79 92.58, 4.3 78.38, 9.25 65.9 C14.2 53.41, 21.38 41.02, 30.69 31.36 C40 21.71, 50.95 13.37, 65.11 7.96 C79.27 2.55, 105.84 -0.58, 115.65 -1.1 C125.46 -1.62, 124.2 2.96, 123.96 4.83 M164.22 15.27 C176.62 20.26, 190.22 32.41, 198.91 42.44 C207.59 52.47, 212.52 62.84, 216.32 75.45 C220.13 88.05, 222.38 105.07, 221.75 118.06 C221.12 131.06, 218.35 141.41, 212.54 153.44 C206.72 165.47, 196.92 180.35, 186.85 190.22 C176.79 200.09, 164.06 207.6, 152.13 212.65 C140.19 217.7, 128.5 220.14, 115.24 220.54 C101.98 220.95, 84.79 219.11, 72.55 215.08 C60.31 211.06, 51.23 204.44, 41.81 196.37 C32.38 188.3, 22.74 178.16, 16.01 166.67 C9.27 155.18, 3.8 141.54, 1.41 127.45 C-0.98 113.37, -1.47 95.92, 1.67 82.16 C4.8 68.41, 12.01 55.43, 20.23 44.93 C28.46 34.43, 39.84 26.61, 51.01 19.17 C62.19 11.73, 74.99 3.07, 87.31 0.3 C99.63 -2.46, 111.9 0.27, 124.94 2.59 C137.99 4.91, 159.09 11.57, 165.58 14.23 C172.07 16.88, 164.86 16.85, 163.88 18.53" stroke="#000000" stroke-width="1" fill="none"></path></g><g transform="translate(1578.6162535348467 1901.864367548518) rotate(0 13.769989013671875 21.599999999999994)"><text x="13.769989013671875" y="0" font-family="Virgil, Segoe UI Emoji" font-size="36px" fill="#000000" text-anchor="middle" style="white-space: pre;" direction="ltr" dominant-baseline="text-before-edge">sì</text></g><g stroke-linecap="round"><g transform="translate(1613.508775101499 2475.2351985883106) rotate(0 41.09931405656471 132.37786296801937)"><path d="M0.51 -2.76 C25.82 76.79, 49.2 146.98, 82.21 267.04 M-1.49 -0.07 C27.12 101.87, 58 201.72, 83.69 267.52" stroke="#364fc7" stroke-width="1" fill="none"></path></g><g transform="translate(1613.508775101499 2475.2351985883106) rotate(0 41.09931405656471 132.37786296801937)"><path d="M65.15 240.86 C72.18 253.17, 77.12 253.75, 80.14 266.82 M62.54 244.38 C70.5 254.81, 76.58 263.27, 82.07 267.43" stroke="#364fc7" stroke-width="1" fill="none"></path></g><g transform="translate(1613.508775101499 2475.2351985883106) rotate(0 41.09931405656471 132.37786296801937)"><path d="M84.46 233.91 C86.11 248.01, 85.67 250.53, 80.14 266.82 M81.85 237.43 C82.46 250.23, 81.32 261.29, 82.07 267.43" stroke="#364fc7" stroke-width="1" fill="none"></path></g></g><mask></mask><g stroke-linecap="round" transform="translate(1734.75 2977.3437499999995) rotate(0 59.72265625 59.72265625)"><path d="M101.19 18.48 C108.21 24.3, 113.29 34.28, 116.11 42.58 C118.93 50.88, 119.8 59.32, 118.11 68.28 C116.43 77.23, 111.34 88.79, 106.01 96.32 C100.68 103.85, 94.14 109.59, 86.13 113.44 C78.12 117.3, 67.1 120.03, 57.96 119.45 C48.81 118.87, 39.11 114.81, 31.25 109.96 C23.38 105.12, 15.79 97.84, 10.78 90.4 C5.76 82.97, 2.29 74.54, 1.17 65.35 C0.05 56.15, 0.27 44.01, 4.06 35.23 C7.85 26.45, 16.84 18.09, 23.9 12.67 C30.96 7.24, 37.44 4.25, 46.43 2.7 C55.43 1.15, 67.38 -1.15, 77.88 3.38 C88.37 7.91, 103.18 23.58, 109.4 29.88 C115.61 36.19, 115.76 41.08, 115.17 41.22 M100.03 14.11 C107.04 18.91, 109.46 28.19, 112.39 36.83 C115.33 45.48, 117.75 56.45, 117.62 65.97 C117.49 75.48, 116.86 85.77, 111.63 93.92 C106.4 102.07, 94.63 110.93, 86.24 114.84 C77.85 118.76, 70.31 117.68, 61.29 117.4 C52.28 117.12, 40.23 117.34, 32.17 113.17 C24.12 109, 18.05 99.75, 12.95 92.37 C7.85 85, 2.84 77.51, 1.57 68.92 C0.3 60.32, 2.44 49.6, 5.34 40.79 C8.24 31.98, 12.3 22.41, 19 16.06 C25.69 9.7, 36.09 5.57, 45.51 2.69 C54.93 -0.2, 66.89 -2.98, 75.52 -1.25 C84.16 0.48, 93.97 10.16, 97.33 13.04 C100.7 15.92, 96.24 14.71, 95.7 16.02" stroke="#e67700" stroke-width="1" fill="none"></path></g><g transform="translate(1780.4723720114798 3015.2361110251513) rotate(0 13.769989013671875 21.600000000000023)"><text x="13.769989013671875" y="0" font-family="Virgil, Segoe UI Emoji" font-size="36px" fill="#e67700" text-anchor="middle" style="white-space: pre;" direction="ltr" dominant-baseline="text-before-edge">sì</text></g><g stroke-linecap="round"><g transform="translate(1800.65625 2911.6484374999995) rotate(0 -1.527151081455031 31.06703000515688)"><path d="M-3.63 1.54 C0.33 15.86, -3.36 36.82, -2.79 59.32 M0.5 0.18 C0.97 21.14, -0.75 42.13, -1.43 61.95" stroke="#e67700" stroke-width="1" fill="none"></path></g><g transform="translate(1800.65625 2911.6484374999995) rotate(0 -1.527151081455031 31.06703000515688)"><path d="M-14.06 34.87 C-7.04 40.14, -8.24 51.87, -4.22 59.37 M-9.93 33.52 C-5.82 42.59, -4.34 51.77, -2.85 62.01" stroke="#e67700" stroke-width="1" fill="none"></path></g><g transform="translate(1800.65625 2911.6484374999995) rotate(0 -1.527151081455031 31.06703000515688)"><path d="M6.44 35.78 C7.79 40.43, 0.92 51.9, -4.22 59.37 M10.57 34.43 C7.42 43.35, 1.62 52.22, -2.85 62.01" stroke="#e67700" stroke-width="1" fill="none"></path></g></g><mask></mask><g stroke-linecap="round"><g transform="translate(1778.671875 3095.8281249999995) rotate(0 -92.67724419863225 124.36086855188546)"><path d="M-0.78 0.69 C-55.34 77.68, -119.48 159.66, -184.47 247.21 M-0.19 0.59 C-39.26 58.11, -83.85 113.94, -185.16 248.13" stroke="#e67700" stroke-width="1" fill="none"></path></g><g transform="translate(1778.671875 3095.8281249999995) rotate(0 -92.67724419863225 124.36086855188546)"><path d="M-177.39 220.44 C-175.98 226.47, -185.48 238.75, -183.72 245.38 M-176.56 220.3 C-176.46 227.21, -181.86 232.57, -184.69 246.67" stroke="#e67700" stroke-width="1" fill="none"></path></g><g transform="translate(1778.671875 3095.8281249999995) rotate(0 -92.67724419863225 124.36086855188546)"><path d="M-161.04 232.85 C-165 234.84, -179.74 243.15, -183.72 245.38 M-160.21 232.7 C-163.96 236.87, -173.07 239.41, -184.69 246.67" stroke="#e67700" stroke-width="1" fill="none"></path></g></g><mask></mask><g stroke-linecap="round"><g transform="translate(1375.0078125 3228.0390624999995) rotate(0 0.5993799559100808 29.188181944191456)"><path d="M1.05 1.59 C-2.12 18.91, -2.97 37.06, 2.65 55.05 M-0.07 -0.08 C-2.25 18.42, -0.39 36.31, 0.58 58.46" stroke="#e67700" stroke-width="1" fill="none"></path></g><g transform="translate(1375.0078125 3228.0390624999995) rotate(0 0.5993799559100808 29.188181944191456)"><path d="M-9.58 33.6 C-8.54 40.49, -5.64 48.25, 3.23 56.07 M-10.7 31.93 C-8.66 40.21, -3.12 47.93, 1.16 59.48" stroke="#e67700" stroke-width="1" fill="none"></path></g><g transform="translate(1375.0078125 3228.0390624999995) rotate(0 0.5993799559100808 29.188181944191456)"><path d="M10.04 32.59 C4.49 39.9, 0.82 48, 3.23 56.07 M8.92 30.92 C4.5 39.6, 3.6 47.65, 1.16 59.48" stroke="#e67700" stroke-width="1" fill="none"></path></g></g><mask></mask><g stroke-linecap="round"><g transform="translate(1604.984375 2034.6015624999995) rotate(0 -0.4041083856027399 125.28035216585326)"><path d="M2.18 1.33 C-5.99 66.75, -2.79 131.96, 0.33 251.67 M0.28 -1.11 C-1.53 64.45, -0.44 128.95, 1.28 251.56" stroke="#000000" stroke-width="1" fill="none"></path></g><g transform="translate(1604.984375 2034.6015624999995) rotate(0 -0.4041083856027399 125.28035216585326)"><path d="M-6.68 225.15 C-10.91 233.46, -4.34 241.36, 1.34 251.11 M-9.02 222.15 C-7.5 231.38, -3.55 239.33, 2.51 250.97" stroke="#000000" stroke-width="1" fill="none"></path></g><g transform="translate(1604.984375 2034.6015624999995) rotate(0 -0.4041083856027399 125.28035216585326)"><path d="M13.84 224.87 C4.34 232.95, 5.65 240.92, 1.34 251.11 M11.5 221.87 C7.82 231.2, 6.58 239.21, 2.51 250.97" stroke="#000000" stroke-width="1" fill="none"></path></g></g><mask></mask><g stroke-linecap="round"><g transform="translate(1645.234375 3452.679687499999) rotate(0 351.0849838758427 -492.18890444912006)"><path d="M-2.79 2.72 C110.96 -40.77, 593.03 -98.65, 682.88 -262.84 C772.73 -427.04, 560.89 -861.8, 536.31 -982.47 M0.9 1.72 C114.2 -42.51, 591.64 -102.78, 680.47 -267.58 C769.3 -432.38, 558.15 -867.4, 533.89 -987.09" stroke="#e67700" stroke-width="1" fill="none"></path></g><g transform="translate(1645.234375 3452.679687499999) rotate(0 351.0849838758427 -492.18890444912006)"><path d="M556.43 -964.06 C547.71 -972.98, 543.51 -981.65, 529.99 -989.43 M552.05 -961.95 C547.03 -972.29, 538.11 -978.18, 534.29 -985.42" stroke="#e67700" stroke-width="1" fill="none"></path></g><g transform="translate(1645.234375 3452.679687499999) rotate(0 351.0849838758427 -492.18890444912006)"><path d="M536.97 -957.55 C534.46 -968.14, 536.38 -978.85, 529.99 -989.43 M532.59 -955.45 C534.14 -968.38, 531.91 -976.51, 534.29 -985.42" stroke="#e67700" stroke-width="1" fill="none"></path></g></g><mask></mask><g stroke-linecap="round" transform="translate(1849.5 10) rotate(0 263.5 164.5)"><path d="M469.56 61.48 C486.1 70.16, 493.75 86.19, 502.75 98.9 C511.75 111.61, 519.89 123.89, 523.56 137.74 C527.23 151.6, 527.19 167.99, 524.77 182.01 C522.35 196.04, 517.35 208.9, 509.05 221.89 C500.75 234.89, 487.99 248.05, 474.97 259.97 C461.95 271.89, 448.6 284.05, 430.95 293.41 C413.3 302.77, 390.42 310.88, 369.07 316.14 C347.72 321.41, 324.86 322.73, 302.86 325.02 C280.86 327.3, 259.33 330.77, 237.07 329.87 C214.8 328.97, 190.84 325.23, 169.27 319.63 C147.7 314.03, 126.42 304.74, 107.64 296.27 C88.87 287.81, 70.79 279.67, 56.59 268.83 C42.4 257.99, 31.35 244.66, 22.49 231.23 C13.63 217.79, 6.67 202.56, 3.45 188.21 C0.23 173.87, 0.94 158.88, 3.15 145.15 C5.37 131.41, 9.13 118.97, 16.76 105.82 C24.38 92.67, 35.06 77.8, 48.89 66.25 C62.71 54.69, 82.01 45.12, 99.72 36.5 C117.43 27.87, 134.94 19.93, 155.14 14.49 C175.34 9.05, 197.93 6.3, 220.92 3.87 C243.91 1.43, 269.87 -1.36, 293.05 -0.12 C316.24 1.13, 339.34 6.23, 360.02 11.36 C380.7 16.49, 391.91 14.79, 417.11 30.65 C442.31 46.51, 494.05 85.07, 511.21 106.52 C528.38 127.96, 524.14 158.01, 520.11 159.31 M53.36 67.11 C62.69 54.25, 81.86 43.6, 99.42 34.11 C116.99 24.62, 137.55 15.89, 158.75 10.18 C179.95 4.48, 203.86 1.73, 226.62 -0.12 C249.37 -1.97, 272.51 -2.6, 295.3 -0.92 C318.1 0.75, 342.43 4.46, 363.4 9.91 C384.36 15.37, 403.07 22.71, 421.09 31.81 C439.1 40.91, 457.69 53.28, 471.5 64.51 C485.32 75.74, 494.68 86.67, 503.98 99.18 C513.28 111.68, 523.82 124.89, 527.29 139.54 C530.75 154.18, 528.41 172.62, 524.78 187.05 C521.15 201.48, 514.44 213.41, 505.51 226.1 C496.58 238.79, 484.59 251.85, 471.2 263.2 C457.82 274.54, 443.18 285.81, 425.19 294.17 C407.19 302.53, 384.04 307.59, 363.24 313.34 C342.43 319.09, 322.31 326.08, 300.35 328.66 C278.39 331.24, 254.17 330.88, 231.47 328.82 C208.77 326.76, 185.53 321.37, 164.17 316.3 C142.82 311.22, 121.73 306.74, 103.36 298.36 C84.98 289.98, 67.23 277.92, 53.93 266.01 C40.62 254.1, 32.3 239.54, 23.53 226.9 C14.75 214.26, 4.76 203.77, 1.29 190.17 C-2.18 176.57, -0.17 160.18, 2.7 145.3 C5.57 130.42, 10 114.53, 18.5 100.9 C26.99 87.27, 47.34 69.17, 53.67 63.53 C60.01 57.89, 53.2 65.16, 56.49 67.05" stroke="#364fc7" stroke-width="1" fill="none"></path></g><g transform="translate(1946.6054332257045 131.4809344948128) rotate(0 166.57192993164062 43.200000000000045)"><text x="166.57192993164062" y="0" font-family="Virgil, Segoe UI Emoji" font-size="36px" fill="#364fc7" text-anchor="middle" style="white-space: pre;" direction="ltr" dominant-baseline="text-before-edge">Notifica a tutti i </text><text x="166.57192993164062" y="43.199999999999996" font-family="Virgil, Segoe UI Emoji" font-size="36px" fill="#364fc7" text-anchor="middle" style="white-space: pre;" direction="ltr" dominant-baseline="text-before-edge">client in broadcast</text></g><g stroke-linecap="round"><g transform="translate(2238.950623837305 2282.8906249999995) rotate(0 -46.460698320532174 -967.9619521837709)"><path d="M2.06 -1.48 C-13.64 -324.15, -76.87 -1613.09, -93.07 -1936.03 M-0.27 3.89 C-16.39 -319.54, -78.73 -1616.41, -94.98 -1939.81" stroke="#364fc7" stroke-width="1" fill="none"></path></g><g transform="translate(2238.950623837305 2282.8906249999995) rotate(0 -46.460698320532174 -967.9619521837709)"><path d="M-85.46 -1911.29 C-84.08 -1923.52, -92.5 -1933.73, -94.39 -1941.61 M-85.23 -1913.6 C-84.64 -1919.09, -88.29 -1924.82, -93.54 -1939.27" stroke="#364fc7" stroke-width="1" fill="none"></path></g><g transform="translate(2238.950623837305 2282.8906249999995) rotate(0 -46.460698320532174 -967.9619521837709)"><path d="M-105.96 -1910.28 C-97.6 -1923.16, -99.04 -1933.71, -94.39 -1941.61 M-105.73 -1912.59 C-99.96 -1918.16, -98.41 -1924.15, -93.54 -1939.27" stroke="#364fc7" stroke-width="1" fill="none"></path></g></g><mask></mask><g stroke-linecap="round"><g transform="translate(1850.7044613152875 146.4894840751606) rotate(0 -600.1663234224661 323.96684109441827)"><path d="M2.73 2.09 C-147.26 31.16, -697.98 66.69, -898.79 173.81 C-1099.59 280.92, -1151.3 566.37, -1202.1 644.76 M0.77 0.75 C-149.61 30.32, -699.87 69.49, -900.51 177.23 C-1101.15 284.97, -1152.65 569.09, -1203.06 647.18" stroke="#364fc7" stroke-width="1" fill="none"></path></g><g transform="translate(1850.7044613152875 146.4894840751606) rotate(0 -600.1663234224661 323.96684109441827)"><path d="M-1198.38 618.59 C-1202.61 629.69, -1204.47 637.73, -1205.71 649.02 M-1201.41 615.91 C-1201.57 627.68, -1202.95 639.98, -1202.32 646.11" stroke="#364fc7" stroke-width="1" fill="none"></path></g><g transform="translate(1850.7044613152875 146.4894840751606) rotate(0 -600.1663234224661 323.96684109441827)"><path d="M-1179.52 626.7 C-1190.14 635.4, -1198.43 640.68, -1205.71 649.02 M-1182.56 624.01 C-1190.18 632.31, -1199.04 641.39, -1202.32 646.11" stroke="#364fc7" stroke-width="1" fill="none"></path></g></g><mask></mask><g stroke-linecap="round"><g transform="translate(1888.300147491981 260.86820987228475) rotate(0 -368.45702051914714 264.67036071142076)"><path d="M1.89 -0.62 C-84.42 26.89, -392.38 73.51, -515.49 162.41 C-638.61 251.3, -700.38 471.12, -736.79 532.76 M-0.53 -3.42 C-87.31 24.69, -394.02 76.66, -517.07 165.32 C-640.12 253.98, -701.53 468.22, -738.8 528.54" stroke="#364fc7" stroke-width="1" fill="none"></path></g><g transform="translate(1888.300147491981 260.86820987228475) rotate(0 -368.45702051914714 264.67036071142076)"><path d="M-737.1 500.39 C-739.65 509.64, -735.32 525.16, -736.1 530.58 M-736.83 498.84 C-736.52 506.5, -739.35 512.43, -738.53 526.67" stroke="#364fc7" stroke-width="1" fill="none"></path></g><g transform="translate(1888.300147491981 260.86820987228475) rotate(0 -368.45702051914714 264.67036071142076)"><path d="M-718.49 509.04 C-728.04 515.22, -730.85 527.41, -736.1 530.58 M-718.22 507.5 C-722.01 512.89, -728.95 516.91, -738.53 526.67" stroke="#364fc7" stroke-width="1" fill="none"></path></g></g><mask></mask><g stroke-linecap="round"><g transform="translate(1975.2307692149425 316.76421334672204) rotate(0 -159.93324757755545 238.40952104209225)"><path d="M-1.29 -0.67 C-43.19 34.96, -198.77 135.47, -252.2 215.64 C-305.64 295.8, -310.15 436.01, -321.91 480.33 M3.2 -3.51 C-38.77 31.15, -198.7 131.71, -253.08 211.56 C-307.46 291.41, -311.58 431.36, -323.07 475.59" stroke="#364fc7" stroke-width="1" fill="none"></path></g><g transform="translate(1975.2307692149425 316.76421334672204) rotate(0 -159.93324757755545 238.40952104209225)"><path d="M-329.67 449.72 C-324.35 455.88, -323.16 462.64, -319.21 476.86 M-330.23 444.97 C-327.59 458.03, -322.82 465.48, -322.18 476.2" stroke="#364fc7" stroke-width="1" fill="none"></path></g><g transform="translate(1975.2307692149425 316.76421334672204) rotate(0 -159.93324757755545 238.40952104209225)"><path d="M-309.41 452.98 C-309.62 458.07, -313.92 463.95, -319.21 476.86 M-309.97 448.23 C-314.56 460.16, -316.99 466.45, -322.18 476.2" stroke="#364fc7" stroke-width="1" fill="none"></path></g></g><mask></mask><g stroke-linecap="round" transform="translate(1396.9557291666642 2658.059151785711) rotate(0 79.77957589285734 79.77957589285734)"><path d="M40.41 10.22 C49.47 4.21, 64.55 0.08, 75.36 -1.11 C86.17 -2.29, 95.15 -0.44, 105.24 3.1 C115.34 6.65, 128.07 12.7, 135.93 20.14 C143.79 27.58, 148.78 37.33, 152.39 47.74 C155.99 58.14, 157.81 71.35, 157.55 82.58 C157.3 93.81, 155.38 105.46, 150.86 115.13 C146.35 124.8, 138.45 133.47, 130.47 140.6 C122.49 147.73, 113.25 154.6, 102.98 157.93 C92.71 161.25, 79.42 162.38, 68.85 160.53 C58.28 158.68, 48.61 152.53, 39.56 146.82 C30.51 141.11, 20.75 135.22, 14.55 126.26 C8.35 117.29, 4.48 104.17, 2.36 93.01 C0.25 81.85, -0.4 69.39, 1.86 59.3 C4.11 49.21, 7.18 41.94, 15.88 32.46 C24.57 22.99, 45 7.72, 54.01 2.43 C63.02 -2.86, 69.48 -0.62, 69.95 0.73 M15.98 31.39 C21.39 22.52, 33.28 17.35, 42.88 11.97 C52.49 6.58, 62.88 0.55, 73.62 -0.94 C84.36 -2.42, 97.6 -1.01, 107.33 3.04 C117.07 7.08, 124.5 15.24, 132.03 23.34 C139.57 31.44, 148.15 41.97, 152.53 51.63 C156.91 61.29, 158.55 71.36, 158.3 81.31 C158.06 91.26, 155.79 101.85, 151.06 111.32 C146.33 120.79, 138.4 131.07, 129.93 138.13 C121.46 145.19, 110.24 149.84, 100.23 153.68 C90.21 157.53, 79.99 162.04, 69.85 161.21 C59.72 160.38, 48.36 154.24, 39.43 148.69 C30.51 143.15, 23.11 136.84, 16.32 127.94 C9.52 119.04, 1.1 105.96, -1.35 95.28 C-3.79 84.6, -1.61 74.78, 1.65 63.86 C4.91 52.93, 15.81 34.96, 18.22 29.74 C20.64 24.52, 15.47 31.08, 16.12 32.53" stroke="#e67700" stroke-width="1" fill="none"></path></g><g transform="translate(1455.258630584167 2716.326048564542) rotate(0 21.563995361328125 21.600000000000023)"><text x="21.563995361328125" y="0" font-family="Virgil, Segoe UI Emoji" font-size="36px" fill="#e67700" text-anchor="middle" style="white-space: pre;" direction="ltr" dominant-baseline="text-before-edge">No</text></g><g stroke-linecap="round"><g transform="translate(1666.976173654969 2768.1776624806016) rotate(0 -53.333759280591494 -7.150854460922005)"><path d="M-0.47 1.96 C-17.94 -0.1, -89.34 -9.32, -106.2 -12.3 M-4.16 0.56 C-20.64 -2.29, -84.58 -13.88, -100.89 -16.26" stroke="#e67700" stroke-width="1" fill="none"></path></g><g transform="translate(1666.976173654969 2768.1776624806016) rotate(0 -53.333759280591494 -7.150854460922005)"><path d="M-68.6 -24.64 C-76.08 -16.78, -88.71 -18.46, -103.4 -17.41 M-72.42 -20.05 C-76.41 -21.72, -87.04 -18.08, -100.19 -14.51" stroke="#e67700" stroke-width="1" fill="none"></path></g><g transform="translate(1666.976173654969 2768.1776624806016) rotate(0 -53.333759280591494 -7.150854460922005)"><path d="M-71.96 -4.39 C-78.6 -1.63, -90.38 -8.43, -103.4 -17.41 M-75.78 0.2 C-79.27 -6.15, -89.1 -7.25, -100.19 -14.51" stroke="#e67700" stroke-width="1" fill="none"></path></g></g><mask></mask><g stroke-linecap="round"><g transform="translate(1447.711831356518 2815.528156796492) rotate(0 -3.1083832531408007 49.27430255137358)"><path d="M2.12 2.17 C1.51 18.29, -4.37 79.22, -5.41 94.71 M-0.17 0.88 C-1.12 17.55, -7.37 81.53, -8.34 97.67" stroke="#e67700" stroke-width="1" fill="none"></path></g><g transform="translate(1447.711831356518 2815.528156796492) rotate(0 -3.1083832531408007 49.27430255137358)"><path d="M-13.2 66.94 C-16.57 75.49, -14.12 84.4, -10.01 100.17 M-16.83 68.36 C-11.88 81.17, -8.16 89.73, -6.46 99.61" stroke="#e67700" stroke-width="1" fill="none"></path></g><g transform="translate(1447.711831356518 2815.528156796492) rotate(0 -3.1083832531408007 49.27430255137358)"><path d="M7.26 68.59 C-0.95 77.06, -3.38 85.58, -10.01 100.17 M3.63 70.01 C0.5 82.12, -3.86 90.03, -6.46 99.61" stroke="#e67700" stroke-width="1" fill="none"></path></g></g><mask></mask></svg>